<svg xmlns="http://www.w3.org/2000/svg" viewBox="0 0 48 48">
  <path fill="#EA4335" d="M24 9.5c3.14 0 5.95 1.08 8.17 2.84l6.1-6.1C34.36 3.04 29.43 1 24 1 14.9 1 7.17 6.35 3.69 14.02l7.1 5.52C12.49 13.47 17.78 9.5 24 9.5z"/>
  <path fill="#4285F4" d="M46.1 24.5c0-1.6-.14-3.13-.4-4.6H24v8.71h12.42c-.54 2.9-2.17 5.36-4.63 7.01l7.1 5.52C43.04 37.08 46.1 31.28 46.1 24.5z"/>
  <path fill="#FBBC05" d="M10.79 28.45A14.5 14.5 0 0 1 9.5 24c0-1.56.27-3.07.74-4.46L3.14 14.02A22.97 22.97 0 0 0 1 24c0 3.74.9 7.27 2.49 10.38l7.3-5.93z"/>
  <path fill="#34A853" d="M24 47c5.43 0 9.99-1.8 13.32-4.87l-7.1-5.52c-1.97 1.32-4.48 2.09-6.22 2.09-6.22 0-11.5-4.2-13.38-9.84l-7.3 5.93C7.17 41.65 14.9 47 24 47z"/>
</svg>
